<svg id="Layer_1" data-name="Layer 1" xmlns="http://www.w3.org/2000/svg" viewBox="0 0 170 170"><defs><style>.cls-1{fill:#515151;}.cls-2{fill:#1f1f1f;}.cls-3{fill:#6f6f6f;}.cls-4{fill:#c4c4c4;}.cls-5{font-size:29px;fill:#db7093;font-family:AbrilFatface-Regular, Abril Fatface;}</style></defs><title>record-3</title><circle class="cls-1" cx="85" cy="85" r="85"/><circle class="cls-2" cx="85" cy="85" r="82"/><circle class="cls-3" cx="85" cy="85" r="28"/><circle cx="85" cy="85" r="3"/><path class="cls-4" d="M65,12.76,84.5,6,105,12.76,99,55c-14.94-5.22-11.73-4.94-28,0Z"/><text class="cls-5" transform="translate(16.72 85.42) rotate(80.96)">R</text><text class="cls-5" transform="translate(21.69 109.71) rotate(61.97)">o</text><text class="cls-5" transform="matrix(0.71, 0.7, -0.7, 0.71, 31.38, 126.9)">u</text><text class="cls-5" transform="translate(47.39 141.75) rotate(26.03)">n</text><text class="cls-5" transform="translate(67.55 150.76) rotate(7.59)">d</text><text class="cls-5" transform="translate(87.11 152.5) rotate(-3.94)"> </text><text class="cls-5" transform="translate(95.45 152.43) rotate(-17.23)">C</text><text class="cls-5" transform="translate(117.46 144.35) rotate(-32.61)">l</text><text class="cls-5" transform="translate(127.71 137.83) rotate(-45.6)">o</text><text class="cls-5" transform="translate(141.19 123.4) rotate(-63.01)">u</text><text class="cls-5" transform="translate(150.41 103.71) rotate(-81.3)">d</text></svg>