<svg width="200" height="200" viewBox="0 0 200 200" fill="none" xmlns="http://www.w3.org/2000/svg">
<g clip-path="url(#clip0)">
<path d="M100.357 200V69.9187L130.302 -2.74181e-06L130.302 130.081L100.357 200Z" fill="#7B7B7B"/>
<path d="M69.6024 0.000106812V130.081L99.5476 200V69.9188L69.6024 0.000106812Z" fill="#7B7B7B"/>
<path d="M100.735 199.542L167.662 150.783L174.031 56.8681L107.105 105.627L100.735 199.542Z" fill="#505050"/>
<path d="M99.8998 200L32.9731 151.241L26.6034 57.3259L93.5301 106.085L99.8998 200Z" fill="#505050"/>
<path d="M99.4542 200L35.4189 180.773L5.42618 110.936L69.4614 130.164L99.4542 200Z" fill="black"/>
<path d="M100.546 200L164.581 180.773L194.574 110.936L130.539 130.164L100.546 200Z" fill="black"/>
<path d="M114.065 114.976L101.092 199.112L161.811 165.296L174.784 81.1604L114.065 114.976Z" fill="black" stroke="white"/>
<path d="M85.9353 114.976L98.9085 199.112L38.1889 165.296L25.2157 81.1604L85.9353 114.976Z" fill="black" stroke="white"/>
<path d="M100.283 199.43L161.201 165.869L100.283 99.4537L38.8029 165.869L100.283 199.43Z" fill="black" stroke="white"/>
<path d="M68.7637 163V148.07H73.2036C73.8188 148.077 74.4204 148.159 75.0083 148.316C75.5962 148.467 76.1191 148.703 76.5771 149.024C77.0352 149.345 77.4009 149.755 77.6743 150.254C77.9478 150.753 78.0811 151.352 78.0742 152.049C78.0674 152.438 78.0024 152.794 77.8794 153.115C77.7632 153.437 77.5991 153.727 77.3872 153.987C77.1821 154.24 76.9395 154.462 76.6592 154.653C76.3789 154.845 76.0815 155.009 75.7671 155.146C76.1636 155.262 76.5259 155.429 76.854 155.648C77.189 155.86 77.4761 156.12 77.7153 156.427C77.9546 156.728 78.1392 157.07 78.269 157.453C78.4058 157.835 78.4741 158.249 78.4741 158.693C78.481 159.391 78.3477 160.006 78.0742 160.539C77.8008 161.072 77.4351 161.52 76.9771 161.882C76.519 162.238 75.9893 162.511 75.3877 162.703C74.793 162.894 74.1777 162.993 73.542 163H68.7637ZM70.6709 156.017V161.39H73.5933C73.9897 161.383 74.3657 161.318 74.7212 161.195C75.0767 161.065 75.3911 160.888 75.6646 160.662C75.938 160.437 76.1533 160.16 76.3105 159.832C76.4746 159.503 76.5566 159.131 76.5566 158.714C76.5635 158.29 76.4917 157.914 76.3413 157.586C76.1978 157.258 75.9961 156.981 75.7363 156.755C75.4766 156.523 75.1724 156.345 74.8237 156.222C74.4751 156.099 74.0991 156.031 73.6958 156.017H70.6709ZM70.6709 154.438H73.3164C73.6719 154.431 74.0205 154.376 74.3623 154.274C74.7041 154.165 75.0083 154.011 75.2749 153.812C75.5415 153.607 75.7568 153.358 75.9209 153.064C76.085 152.77 76.167 152.428 76.167 152.039C76.167 151.622 76.085 151.266 75.9209 150.972C75.7637 150.678 75.5483 150.439 75.2749 150.254C75.0083 150.063 74.6973 149.923 74.3418 149.834C73.9932 149.745 73.6343 149.697 73.2651 149.69H70.6709V154.438ZM88.5947 161.472C88.2256 162.019 87.7642 162.446 87.2104 162.754C86.6567 163.055 86.0176 163.205 85.293 163.205C84.7119 163.205 84.1855 163.116 83.7139 162.938C83.2422 162.754 82.8389 162.47 82.5039 162.087C82.1689 161.705 81.9092 161.219 81.7246 160.631C81.5469 160.037 81.458 159.326 81.458 158.499V151.905H83.355V158.519C83.355 159.121 83.4028 159.62 83.4985 160.016C83.5942 160.413 83.7378 160.73 83.9292 160.97C84.1206 161.202 84.353 161.366 84.6265 161.462C84.9067 161.558 85.228 161.605 85.5903 161.605C86.3628 161.605 86.9849 161.448 87.4565 161.134C87.9351 160.819 88.2905 160.396 88.5229 159.862V151.905H90.4302V163H88.7075L88.5947 161.472ZM98.5 149.219V151.905H102.725V153.372H98.5V159.401C98.5 159.832 98.5547 160.187 98.6641 160.467C98.7734 160.748 98.9238 160.973 99.1152 161.144C99.3066 161.308 99.5254 161.424 99.7715 161.493C100.024 161.561 100.291 161.595 100.571 161.595C100.776 161.595 100.988 161.585 101.207 161.564C101.426 161.537 101.638 161.506 101.843 161.472C102.055 161.438 102.25 161.404 102.427 161.37C102.612 161.329 102.762 161.294 102.878 161.267L103.145 162.61C102.988 162.706 102.796 162.792 102.571 162.867C102.345 162.935 102.099 162.993 101.833 163.041C101.566 163.096 101.282 163.137 100.981 163.164C100.688 163.191 100.394 163.205 100.1 163.205C99.6074 163.205 99.146 163.137 98.7153 163C98.2915 162.856 97.9224 162.634 97.6079 162.333C97.2935 162.026 97.0439 161.633 96.8594 161.154C96.6816 160.669 96.5928 160.084 96.5928 159.401V153.372H93.6807V151.905H96.5928V149.219H98.5ZM111.112 149.219V151.905H115.337V153.372H111.112V159.401C111.112 159.832 111.167 160.187 111.276 160.467C111.386 160.748 111.536 160.973 111.728 161.144C111.919 161.308 112.138 161.424 112.384 161.493C112.637 161.561 112.903 161.595 113.184 161.595C113.389 161.595 113.601 161.585 113.819 161.564C114.038 161.537 114.25 161.506 114.455 161.472C114.667 161.438 114.862 161.404 115.04 161.37C115.224 161.329 115.375 161.294 115.491 161.267L115.757 162.61C115.6 162.706 115.409 162.792 115.183 162.867C114.958 162.935 114.711 162.993 114.445 163.041C114.178 163.096 113.895 163.137 113.594 163.164C113.3 163.191 113.006 163.205 112.712 163.205C112.22 163.205 111.758 163.137 111.328 163C110.904 162.856 110.535 162.634 110.22 162.333C109.906 162.026 109.656 161.633 109.472 161.154C109.294 160.669 109.205 160.084 109.205 159.401V153.372H106.293V151.905H109.205V149.219H111.112ZM126.606 160.057C126.606 159.832 126.562 159.63 126.473 159.452C126.384 159.268 126.233 159.1 126.021 158.95C125.81 158.799 125.529 158.663 125.181 158.54C124.832 158.41 124.398 158.293 123.878 158.191C123.243 158.061 122.662 157.904 122.135 157.719C121.616 157.535 121.168 157.316 120.792 157.063C120.423 156.803 120.136 156.502 119.931 156.161C119.726 155.812 119.623 155.409 119.623 154.951C119.623 154.5 119.729 154.079 119.941 153.689C120.153 153.293 120.45 152.948 120.833 152.654C121.216 152.36 121.67 152.127 122.197 151.957C122.73 151.786 123.314 151.7 123.95 151.7C124.634 151.7 125.249 151.789 125.796 151.967C126.343 152.145 126.808 152.391 127.19 152.705C127.573 153.02 127.867 153.389 128.072 153.812C128.284 154.229 128.39 154.681 128.39 155.166H126.493C126.493 154.927 126.432 154.694 126.309 154.469C126.186 154.236 126.015 154.031 125.796 153.854C125.577 153.676 125.311 153.532 124.996 153.423C124.688 153.313 124.34 153.259 123.95 153.259C123.547 153.259 123.191 153.303 122.884 153.392C122.583 153.481 122.33 153.601 122.125 153.751C121.927 153.901 121.776 154.076 121.674 154.274C121.571 154.472 121.52 154.677 121.52 154.889C121.52 155.108 121.561 155.303 121.643 155.474C121.725 155.645 121.865 155.798 122.063 155.935C122.269 156.072 122.539 156.195 122.874 156.304C123.215 156.414 123.646 156.52 124.166 156.622C124.849 156.766 125.461 156.933 126.001 157.125C126.541 157.309 126.996 157.535 127.365 157.801C127.734 158.061 128.014 158.365 128.206 158.714C128.404 159.062 128.503 159.466 128.503 159.924C128.503 160.416 128.39 160.864 128.165 161.267C127.946 161.67 127.638 162.016 127.242 162.303C126.845 162.59 126.37 162.812 125.816 162.969C125.263 163.126 124.658 163.205 124.001 163.205C123.25 163.205 122.58 163.106 121.992 162.908C121.404 162.703 120.905 162.436 120.495 162.108C120.091 161.773 119.78 161.387 119.562 160.949C119.35 160.512 119.244 160.057 119.244 159.585H121.141C121.168 159.975 121.271 160.303 121.448 160.57C121.633 160.836 121.858 161.052 122.125 161.216C122.398 161.38 122.699 161.496 123.027 161.564C123.355 161.633 123.68 161.667 124.001 161.667C124.801 161.667 125.434 161.52 125.898 161.226C126.363 160.932 126.599 160.542 126.606 160.057ZM135.147 161.77C135.147 161.564 135.178 161.373 135.24 161.195C135.308 161.018 135.404 160.864 135.527 160.734C135.65 160.597 135.804 160.491 135.988 160.416C136.173 160.341 136.388 160.303 136.634 160.303C136.88 160.303 137.096 160.341 137.28 160.416C137.472 160.491 137.629 160.597 137.752 160.734C137.882 160.864 137.978 161.018 138.039 161.195C138.107 161.373 138.142 161.564 138.142 161.77C138.142 161.968 138.107 162.156 138.039 162.333C137.978 162.504 137.882 162.655 137.752 162.785C137.629 162.915 137.472 163.014 137.28 163.082C137.096 163.157 136.88 163.195 136.634 163.195C136.388 163.195 136.173 163.157 135.988 163.082C135.804 163.014 135.65 162.915 135.527 162.785C135.404 162.655 135.308 162.504 135.24 162.333C135.178 162.156 135.147 161.968 135.147 161.77Z" fill="white"/>
</g>
<defs>
<clipPath id="clip0">
<rect width="200" height="200" fill="white"/>
</clipPath>
</defs>
</svg>
